<svg id="svg" version="1.1" xmlns="http://www.w3.org/2000/svg" xmlns:xlink="http://www.w3.org/1999/xlink" width="400" height="195.47151032595175" viewBox="40, 40, 300,95.47151032595175"><g id="svgg"><path id="path0" d="M315.832 60.146 C 314.881 60.458,314.014 61.090,313.237 62.039 C 311.701 63.913,312.592 67.424,314.914 68.650 C 315.826 69.131,315.961 69.098,316.164 68.344 C 316.627 66.622,318.569 65.828,320.867 66.420 C 322.132 66.746,321.619 62.021,320.313 61.322 C 320.155 61.238,319.923 61.066,319.797 60.939 C 319.080 60.223,316.917 59.790,315.832 60.146 M305.833 67.177 C 304.567 67.697,304.464 69.461,305.663 70.082 C 306.894 70.718,308.167 69.924,308.167 68.520 C 308.167 67.475,306.892 66.742,305.833 67.177 M301.894 71.325 C 299.228 71.961,298.681 75.709,301.056 77.066 C 303.431 78.424,306.000 76.954,306.000 74.239 C 306.000 72.238,304.004 70.822,301.894 71.325 M308.465 71.331 C 306.085 72.049,305.538 75.199,307.502 76.880 C 309.623 78.695,312.953 76.861,312.627 74.057 C 312.389 72.011,310.442 70.735,308.465 71.331 M297.471 76.119 C 296.932 76.453,296.667 76.990,296.667 77.749 C 296.667 79.103,298.387 79.828,299.460 78.924 C 301.088 77.555,299.276 74.999,297.471 76.119 M303.531 78.120 C 302.885 78.923,303.157 79.895,304.175 80.421 C 305.145 80.922,306.167 80.188,306.167 78.990 C 306.167 77.730,304.332 77.124,303.531 78.120 M296.500 79.608 C 295.662 79.881,295.032 80.260,294.674 80.708 L 294.265 81.219 294.667 81.485 C 296.181 82.483,296.833 83.658,296.833 85.387 L 296.833 86.541 297.721 86.468 C 300.653 86.225,301.860 82.672,299.725 80.567 C 298.878 79.733,297.435 79.303,296.500 79.608 " stroke="none" fill="#fbab3c" fill-rule="evenodd"></path><path id="path1" d="M316.625 69.118 C 316.831 69.157,317.169 69.157,317.375 69.118 C 317.581 69.078,317.412 69.045,317.000 69.045 C 316.587 69.045,316.419 69.078,316.625 69.118 M331.417 88.276 C 327.418 90.381,330.219 96.479,334.361 94.688 C 334.943 94.436,336.218 93.333,335.926 93.333 C 335.885 93.333,335.959 93.073,336.092 92.755 C 337.177 90.158,333.867 86.987,331.417 88.276 M324.638 94.173 C 324.268 94.389,323.958 95.360,324.091 95.888 C 324.352 96.930,325.617 97.301,326.468 96.585 C 327.837 95.432,326.193 93.265,324.638 94.173 M331.018 95.399 C 329.527 96.226,330.122 98.742,331.809 98.742 C 332.608 98.742,333.418 98.086,333.591 97.299 C 333.885 95.961,332.221 94.732,331.018 95.399 M319.707 97.142 C 317.215 97.860,316.845 101.816,319.160 102.997 C 320.519 103.690,322.527 103.300,323.318 102.188 C 325.146 99.622,322.745 96.266,319.707 97.142 M326.057 97.242 C 323.842 98.206,323.532 101.388,325.512 102.823 C 326.990 103.894,329.472 103.323,330.262 101.731 C 331.605 99.025,328.812 96.043,326.057 97.242 M309.337 99.547 C 308.271 100.087,308.225 101.951,309.263 102.507 C 310.417 103.124,311.833 102.273,311.833 100.962 C 311.833 99.856,310.368 99.026,309.337 99.547 M314.629 101.093 C 313.411 101.754,313.657 103.622,315.002 103.917 C 315.729 104.077,316.623 103.487,316.760 102.757 C 316.990 101.532,315.691 100.517,314.629 101.093 M310.005 104.097 C 307.433 105.213,308.135 109.001,310.914 108.999 C 313.950 108.997,314.512 104.815,311.583 104.017 C 310.750 103.790,310.709 103.792,310.005 104.097 M322.625 104.664 C 321.740 105.360,321.971 107.074,323.009 107.504 C 324.166 107.983,325.333 107.208,325.333 105.961 C 325.333 104.626,323.680 103.834,322.625 104.664 M316.833 104.700 C 313.273 105.687,314.026 111.000,317.726 111.000 C 319.540 111.000,320.833 109.647,320.833 107.749 C 320.833 105.670,318.833 104.145,316.833 104.700 " stroke="none" fill="#1cab84" fill-rule="evenodd"></path><path id="path2" d="M79.500 63.344 C 74.301 63.897,68.314 66.281,64.882 69.164 C 64.771 69.257,64.642 69.333,64.594 69.333 C 64.506 69.333,62.834 71.009,61.542 72.393 C 61.152 72.810,60.833 73.223,60.833 73.312 C 60.833 73.400,60.768 73.497,60.688 73.528 C 60.487 73.604,58.877 76.097,58.736 76.550 C 58.673 76.752,58.552 76.962,58.466 77.017 C 58.381 77.072,58.290 77.222,58.263 77.350 C 58.179 77.760,57.677 78.807,57.517 78.906 C 57.432 78.959,57.312 79.301,57.250 79.668 C 57.188 80.034,57.069 80.333,56.985 80.333 C 56.902 80.333,56.833 80.504,56.833 80.713 C 56.833 80.922,56.732 81.240,56.608 81.421 C 56.484 81.602,56.335 82.112,56.276 82.555 C 56.217 82.999,56.112 83.449,56.043 83.555 C 55.834 83.878,55.488 85.650,55.298 87.375 C 55.200 88.269,55.059 89.000,54.986 89.000 C 54.796 89.000,54.790 97.953,54.980 98.071 C 55.066 98.124,55.189 98.898,55.254 99.792 C 55.319 100.686,55.441 101.502,55.524 101.606 C 55.607 101.710,55.722 102.291,55.779 102.897 C 55.835 103.504,55.941 104.000,56.014 104.000 C 56.087 104.000,56.193 104.356,56.249 104.792 C 56.306 105.227,56.460 105.782,56.593 106.026 C 56.725 106.269,56.834 106.607,56.834 106.776 C 56.835 106.945,56.947 107.298,57.084 107.561 C 57.221 107.823,57.333 108.134,57.333 108.252 C 57.333 108.370,57.558 108.919,57.833 109.474 C 58.108 110.028,58.333 110.592,58.333 110.727 C 58.333 110.862,58.390 110.997,58.458 111.028 C 58.527 111.058,58.801 111.533,59.066 112.083 C 65.986 126.405,88.987 129.724,100.739 118.096 C 102.157 116.693,104.167 114.106,104.167 113.683 C 104.167 113.582,104.225 113.500,104.297 113.500 C 104.368 113.500,104.513 113.294,104.618 113.042 C 104.723 112.790,104.955 112.321,105.133 112.000 C 105.311 111.679,105.621 111.042,105.822 110.583 C 106.023 110.125,106.248 109.635,106.323 109.495 C 106.397 109.354,106.510 108.999,106.575 108.705 C 106.640 108.411,106.762 108.128,106.846 108.075 C 106.931 108.023,107.000 107.816,107.001 107.615 C 107.002 107.414,107.104 107.055,107.228 106.816 C 107.918 105.495,107.724 104.714,106.667 104.551 C 106.438 104.516,106.017 104.413,105.733 104.322 C 105.448 104.231,105.073 104.128,104.899 104.093 C 104.726 104.058,103.523 103.759,102.228 103.429 C 99.591 102.757,99.413 102.770,99.253 103.637 C 99.190 103.974,98.920 104.916,98.653 105.730 C 98.385 106.545,98.167 107.313,98.167 107.439 C 98.167 107.564,98.098 107.667,98.013 107.667 C 97.929 107.667,97.812 107.886,97.753 108.155 C 97.694 108.424,97.538 108.733,97.406 108.842 C 97.274 108.951,97.167 109.103,97.167 109.179 C 97.167 109.660,95.553 111.919,94.362 113.105 C 87.338 120.100,73.793 119.146,68.035 111.250 C 67.701 110.792,67.376 110.379,67.313 110.333 C 67.085 110.168,65.500 106.938,65.500 106.639 C 65.500 106.471,65.425 106.333,65.333 106.333 C 65.242 106.333,65.166 106.165,65.166 105.958 C 65.165 105.752,65.063 105.388,64.938 105.150 C 64.814 104.911,64.660 104.367,64.596 103.941 C 64.532 103.515,64.416 103.167,64.337 103.167 C 64.259 103.167,64.142 102.604,64.078 101.917 C 64.014 101.229,63.906 100.667,63.839 100.667 C 63.772 100.667,63.666 99.833,63.604 98.815 C 63.542 97.796,63.419 96.826,63.329 96.659 C 63.119 96.267,63.114 91.500,63.323 91.500 C 63.409 91.500,63.473 91.369,63.466 91.208 C 63.432 90.431,63.721 87.396,63.844 87.243 C 63.921 87.147,64.035 86.566,64.098 85.951 C 64.161 85.336,64.269 84.833,64.337 84.833 C 64.406 84.833,64.516 84.477,64.581 84.042 C 64.646 83.606,64.763 83.211,64.841 83.162 C 64.918 83.114,65.025 82.829,65.078 82.529 C 65.131 82.229,65.238 81.856,65.315 81.700 C 65.393 81.544,65.744 80.798,66.095 80.042 C 66.446 79.285,66.793 78.667,66.867 78.667 C 66.940 78.667,67.000 78.589,67.000 78.493 C 67.000 78.296,67.685 77.279,67.875 77.194 C 67.944 77.164,68.000 77.050,68.000 76.941 C 68.000 76.832,68.481 76.257,69.069 75.663 C 76.130 68.529,89.370 68.457,95.032 75.523 C 95.691 76.345,96.333 77.325,96.333 77.507 C 96.333 77.595,96.402 77.667,96.487 77.667 C 96.571 77.667,96.690 77.892,96.750 78.167 C 96.810 78.442,96.923 78.667,97.000 78.667 C 97.077 78.667,97.190 78.892,97.250 79.167 C 97.310 79.442,97.429 79.667,97.513 79.667 C 97.598 79.667,97.667 79.824,97.667 80.016 C 97.667 80.208,97.774 80.564,97.906 80.808 C 98.037 81.051,98.184 81.438,98.232 81.667 C 98.427 82.599,98.649 82.711,99.747 82.424 C 100.291 82.283,100.940 82.167,101.188 82.167 C 101.436 82.167,101.664 82.094,101.694 82.006 C 101.725 81.917,102.200 81.793,102.750 81.731 C 103.300 81.668,103.796 81.546,103.852 81.461 C 103.908 81.376,104.414 81.264,104.977 81.213 C 105.539 81.162,106.000 81.056,106.000 80.977 C 106.000 80.898,106.157 80.833,106.348 80.833 C 106.703 80.833,106.685 79.561,106.326 79.332 C 106.253 79.285,106.143 79.022,106.083 78.748 C 105.976 78.268,105.606 77.354,105.308 76.833 C 105.229 76.696,105.119 76.471,105.064 76.333 C 104.779 75.622,104.439 74.907,104.350 74.833 C 104.295 74.787,104.063 74.375,103.833 73.917 C 103.604 73.459,103.335 73.009,103.234 72.917 C 103.134 72.825,102.704 72.288,102.278 71.724 C 97.588 65.503,88.980 62.336,79.500 63.344 M117.208 94.032 L 117.250 123.917 121.375 123.961 L 125.500 124.006 125.500 110.828 L 125.500 97.649 132.278 97.700 C 137.516 97.739,139.072 97.797,139.125 97.958 C 139.163 98.073,139.404 98.167,139.660 98.167 C 139.916 98.167,140.219 98.279,140.333 98.417 C 140.447 98.554,140.642 98.667,140.765 98.667 C 141.930 98.667,145.117 101.831,147.945 105.796 C 149.746 108.322,150.724 109.788,153.954 114.805 C 154.525 115.692,155.068 116.507,155.162 116.618 C 155.256 116.729,155.333 116.865,155.333 116.921 C 155.333 116.977,155.558 117.350,155.833 117.750 C 156.108 118.150,156.333 118.557,156.333 118.655 C 156.333 118.753,156.400 118.833,156.481 118.833 C 156.562 118.833,156.672 118.965,156.726 119.125 C 156.865 119.540,157.214 120.061,157.458 120.217 C 157.573 120.290,157.667 120.453,157.667 120.580 C 157.667 120.706,157.760 120.912,157.875 121.037 C 158.157 121.344,158.467 121.838,158.663 122.292 C 158.752 122.498,158.884 122.667,158.956 122.667 C 159.087 122.667,159.387 123.155,159.596 123.708 C 159.724 124.050,170.000 124.172,170.000 123.832 C 170.000 123.739,169.775 123.353,169.500 122.974 C 169.225 122.594,169.000 122.182,169.000 122.058 C 169.000 121.935,168.937 121.833,168.860 121.833 C 168.783 121.833,168.632 121.665,168.525 121.458 C 168.418 121.252,168.181 120.858,168.000 120.583 C 167.819 120.308,167.617 119.971,167.552 119.833 C 167.487 119.696,167.370 119.508,167.292 119.417 C 167.004 119.077,166.000 117.466,166.000 117.344 C 166.000 117.233,165.809 116.974,165.170 116.215 C 165.076 116.105,165.000 115.896,165.000 115.752 C 165.000 115.608,164.887 115.446,164.750 115.394 C 164.612 115.341,164.500 115.199,164.500 115.077 C 164.500 114.956,164.402 114.758,164.282 114.637 C 164.163 114.516,164.010 114.304,163.942 114.167 C 163.726 113.723,162.837 112.326,162.671 112.167 C 162.569 112.070,162.420 111.831,161.475 110.250 C 157.857 104.202,153.592 99.416,150.148 97.541 C 148.801 96.807,148.738 96.667,149.755 96.667 C 150.171 96.667,150.780 96.554,151.109 96.417 C 151.438 96.279,151.904 96.166,152.145 96.166 C 152.386 96.165,152.774 96.065,153.007 95.943 C 153.241 95.822,153.683 95.672,153.990 95.610 C 154.297 95.549,155.156 95.207,155.899 94.850 C 156.642 94.493,157.419 94.151,157.625 94.089 C 157.831 94.028,158.000 93.908,158.000 93.822 C 158.000 93.737,158.083 93.667,158.184 93.667 C 158.588 93.667,162.000 90.570,162.000 90.204 C 162.000 90.111,162.103 89.996,162.229 89.948 C 162.354 89.900,162.622 89.535,162.823 89.138 C 163.024 88.741,163.376 88.093,163.605 87.697 C 163.835 87.301,164.033 86.832,164.047 86.655 C 164.060 86.478,164.127 86.333,164.195 86.333 C 164.263 86.333,164.369 86.052,164.431 85.708 C 164.493 85.365,164.627 84.978,164.730 84.849 C 164.983 84.533,165.091 78.106,164.861 77.141 C 164.465 75.488,164.314 74.936,164.206 74.765 C 164.144 74.665,164.070 74.434,164.041 74.251 C 163.855 73.054,162.137 70.447,160.415 68.750 C 157.946 66.317,155.540 65.271,150.755 64.552 C 149.167 64.313,146.753 64.267,133.041 64.212 L 117.166 64.148 117.208 94.032 M177.278 64.278 C 177.217 64.339,177.167 77.801,177.167 94.194 L 177.167 124.000 199.670 124.000 L 222.173 124.000 222.128 120.375 L 222.083 116.750 203.792 116.708 L 185.500 116.665 185.500 106.666 L 185.500 96.667 202.000 96.667 L 218.500 96.667 218.500 93.000 L 218.500 89.333 202.000 89.333 L 185.500 89.333 185.500 80.417 L 185.500 71.500 203.083 71.500 L 220.667 71.500 220.667 67.833 L 220.667 64.167 199.028 64.167 C 187.126 64.167,177.339 64.217,177.278 64.278 M232.833 94.083 L 232.833 124.000 255.167 124.000 L 277.500 124.000 277.500 120.333 L 277.500 116.667 259.250 116.667 L 241.000 116.667 241.000 106.667 L 241.000 96.667 257.417 96.667 L 273.833 96.667 273.833 93.000 L 273.833 89.333 257.417 89.333 L 241.000 89.333 241.000 80.417 L 241.000 71.500 258.583 71.500 L 276.167 71.500 276.167 67.833 L 276.167 64.167 254.500 64.167 L 232.833 64.167 232.833 94.083 M320.695 67.180 C 319.700 68.533,318.026 69.307,316.535 69.103 L 315.787 69.000 315.885 69.824 C 316.411 74.269,322.806 73.942,322.829 69.469 C 322.834 68.291,322.693 67.914,321.947 67.125 C 321.224 66.360,321.301 66.357,320.695 67.180 M323.654 69.321 C 322.543 70.431,323.294 72.333,324.842 72.333 C 325.761 72.333,326.667 71.461,326.667 70.577 C 326.667 69.056,324.728 68.247,323.654 69.321 M149.298 71.715 C 150.798 72.150,152.557 72.916,153.081 73.364 C 154.439 74.525,155.490 75.826,155.750 76.667 C 155.820 76.896,155.937 77.121,156.008 77.168 C 156.080 77.214,156.188 77.587,156.249 77.995 C 156.310 78.404,156.429 78.868,156.513 79.025 C 156.748 79.464,156.692 81.655,156.423 82.542 C 156.291 82.977,156.225 83.333,156.277 83.333 C 156.329 83.333,156.251 83.518,156.103 83.744 C 155.954 83.970,155.833 84.242,155.833 84.347 C 155.833 85.207,153.190 88.196,152.213 88.441 C 152.004 88.493,151.833 88.595,151.833 88.666 C 151.833 88.738,151.571 88.845,151.250 88.906 C 150.929 88.966,150.667 89.087,150.667 89.174 C 150.667 89.262,150.472 89.333,150.234 89.333 C 149.996 89.333,149.602 89.442,149.359 89.575 C 149.116 89.707,148.411 89.863,147.793 89.921 C 147.176 89.979,146.627 90.095,146.575 90.180 C 146.519 90.271,142.208 90.333,135.990 90.333 L 125.500 90.333 125.500 80.741 L 125.500 71.149 136.625 71.208 L 147.750 71.267 149.298 71.715 M326.681 71.953 C 325.713 72.336,324.833 73.804,324.833 75.038 C 324.833 78.177,329.065 79.449,330.714 76.804 C 332.382 74.127,329.612 70.794,326.681 71.953 M322.296 75.792 C 320.937 77.339,322.820 79.413,324.316 78.016 C 325.376 77.026,324.750 75.500,323.284 75.500 C 322.795 75.500,322.466 75.597,322.296 75.792 M332.735 77.295 C 332.281 77.671,331.940 78.550,332.080 78.989 C 332.578 80.558,334.547 80.859,335.263 79.475 C 336.045 77.962,334.030 76.225,332.735 77.295 M326.583 78.657 C 325.631 79.046,324.833 80.379,324.833 81.583 C 324.833 85.575,330.641 86.037,331.280 82.096 C 331.666 79.717,328.918 77.704,326.583 78.657 M336.426 84.777 C 335.536 85.033,334.182 86.159,333.754 87.000 C 333.259 87.973,333.278 88.123,333.925 88.336 C 335.743 88.936,336.792 91.081,336.089 92.762 C 335.776 93.511,336.174 93.717,337.939 93.719 C 342.776 93.726,344.029 87.474,339.683 85.024 C 339.264 84.788,336.988 84.616,336.426 84.777 " stroke="none" fill="#049ccb" fill-rule="evenodd"></path><path id="path3" d="M290.417 81.152 C 286.698 82.891,287.056 88.482,290.968 89.756 C 296.026 91.404,299.181 84.622,294.770 81.583 C 293.582 80.765,291.653 80.574,290.417 81.152 M295.495 89.282 C 293.916 90.363,295.123 92.925,296.930 92.329 C 298.288 91.881,298.441 89.909,297.170 89.252 C 296.535 88.924,296.005 88.933,295.495 89.282 M300.833 89.951 C 299.860 90.307,298.996 91.817,299.004 93.146 C 299.028 97.174,305.104 97.258,305.307 93.234 C 305.435 90.715,303.210 89.083,300.833 89.951 M291.363 91.805 C 290.705 92.311,290.674 93.367,291.300 93.992 C 292.661 95.353,294.682 93.457,293.488 91.939 C 293.065 91.401,291.977 91.333,291.363 91.805 M295.290 94.590 C 294.637 95.195,294.629 96.493,295.274 97.091 C 295.904 97.674,296.961 97.660,297.561 97.061 C 299.060 95.561,296.843 93.150,295.290 94.590 M290.553 95.493 C 289.711 95.850,289.536 97.409,290.272 97.988 C 291.688 99.101,293.628 97.266,292.458 95.920 C 292.045 95.445,291.144 95.243,290.553 95.493 M306.046 96.462 C 304.873 97.374,305.448 99.167,306.913 99.167 C 307.848 99.167,308.409 98.594,308.409 97.640 C 308.409 96.425,306.998 95.722,306.046 96.462 M301.377 96.512 C 298.849 97.001,298.138 100.651,300.256 102.266 C 302.340 103.856,305.171 102.435,305.308 99.731 C 305.425 97.398,303.776 96.047,301.377 96.512 M296.392 98.614 C 295.213 98.849,294.915 101.086,295.987 101.659 C 296.571 101.972,297.609 101.867,298.099 101.445 C 299.401 100.325,298.158 98.261,296.392 98.614 M290.461 100.598 C 287.887 102.465,289.183 106.501,292.356 106.499 C 295.465 106.498,296.679 102.975,294.338 100.750 C 293.553 100.004,291.398 99.919,290.461 100.598 M304.154 102.821 C 303.034 103.940,303.796 105.838,305.362 105.830 C 306.420 105.824,307.167 105.102,307.167 104.083 C 307.167 102.520,305.256 101.719,304.154 102.821 M297.300 105.341 C 296.325 106.316,296.924 107.833,298.283 107.833 C 299.254 107.833,299.834 107.289,299.831 106.383 C 299.825 104.943,298.318 104.323,297.300 105.341 M301.363 106.246 C 299.478 107.285,300.941 110.176,302.886 109.253 C 304.226 108.618,304.135 106.818,302.734 106.232 C 302.078 105.959,301.881 105.961,301.363 106.246 M292.917 108.694 C 289.956 110.324,291.077 115.000,294.429 115.000 C 297.548 115.000,298.788 110.415,296.083 108.883 C 295.343 108.464,293.531 108.356,292.917 108.694 M299.487 110.987 C 299.110 111.364,299.000 111.626,299.000 112.145 C 299.000 114.105,301.904 114.487,302.263 112.573 C 302.577 110.900,300.666 109.809,299.487 110.987 M290.157 115.593 C 289.858 115.912,289.761 116.195,289.774 116.709 C 289.819 118.418,292.051 118.702,292.669 117.078 C 293.219 115.631,291.228 114.454,290.157 115.593 M301.044 116.156 C 299.316 116.586,298.317 118.526,298.907 120.305 C 300.058 123.770,305.126 123.009,305.159 119.367 C 305.179 117.155,303.207 115.617,301.044 116.156 M293.333 120.112 C 292.037 120.669,291.458 121.632,291.458 123.228 C 291.458 126.923,296.783 127.693,297.675 124.127 C 298.359 121.388,295.822 119.041,293.333 120.112 M299.435 123.740 C 297.901 124.417,298.449 127.000,300.127 127.000 C 302.029 127.000,302.477 124.229,300.664 123.686 C 299.949 123.471,300.053 123.467,299.435 123.740 " stroke="none" fill="#eb6b24" fill-rule="evenodd"></path><path id="path4" d="M317.876 66.441 C 317.253 66.748,316.167 67.889,316.167 68.237 C 316.167 68.367,316.121 68.591,316.066 68.736 C 315.884 69.208,317.913 69.094,318.956 68.574 C 319.742 68.183,321.000 67.024,321.000 66.693 C 321.000 66.173,318.783 65.994,317.876 66.441 " stroke="none" fill="#057c3c" fill-rule="evenodd"></path></g></svg>